<?xml version="1.0" standalone="no"?>
<!DOCTYPE svg PUBLIC "-//W3C//DTD SVG 20010904//EN"
 "http://www.w3.org/TR/2001/REC-SVG-20010904/DTD/svg10.dtd">
<svg version="1.0" xmlns="http://www.w3.org/2000/svg"
 width="700.000000pt" height="700.000000pt" viewBox="0 0 700.000000 700.000000"
 preserveAspectRatio="xMidYMid meet">
<metadata>
Created by potrace 1.14, written by Peter Selinger 2001-2017
</metadata>
<g transform="translate(0.000000,700.000000) scale(0.100000,-0.100000)"
fill="#000000" stroke="none">
<path d="M3498 6066 c-1 -2 -41 -6 -88 -9 -217 -16 -265 -33 -905 -317 -149
-66 -328 -145 -370 -163 -27 -12 -90 -42 -140 -68 -371 -190 -616 -537 -673
-954 -4 -27 -7 -266 -6 -530 0 -482 1 -498 40 -760 4 -26 44 -213 59 -270 9
-37 56 -190 65 -210 4 -11 29 -74 55 -140 181 -455 489 -887 845 -1188 47 -40
87 -74 90 -77 3 -3 30 -23 60 -45 30 -22 57 -42 60 -45 29 -31 269 -173 396
-235 276 -133 405 -163 619 -142 175 17 469 151 756 344 53 35 105 72 115 82
11 9 29 24 41 32 95 66 328 293 446 434 408 489 658 1088 714 1714 10 111 10
970 0 1039 -52 362 -250 683 -542 876 -98 65 -116 75 -335 171 -96 43 -193 85
-215 95 -257 114 -497 220 -500 220 -2 0 -32 13 -67 29 -124 58 -278 98 -409
107 -46 3 -89 7 -96 9 -6 2 -13 2 -15 1z m605 -1310 c11 -6 27 -28 37 -49 25
-56 13 -97 -50 -162 -77 -82 -95 -145 -70 -236 14 -51 83 -153 141 -211 79
-79 117 -90 299 -93 85 -1 167 -5 181 -9 34 -10 79 -79 73 -114 -17 -103 -44
-116 -244 -117 -132 -1 -159 -4 -183 -20 -55 -35 -70 -97 -41 -159 25 -52 51
-59 221 -62 162 -3 192 -10 225 -54 40 -56 21 -141 -40 -172 -27 -13 -65 -16
-183 -17 -168 -1 -196 -9 -224 -67 -20 -42 -19 -79 2 -115 29 -50 65 -59 222
-59 157 0 195 -9 225 -55 23 -35 24 -96 2 -129 -30 -47 -66 -57 -207 -58 -218
-2 -264 -26 -443 -232 -168 -193 -407 -280 -661 -239 -94 15 -156 36 -245 83
-62 33 -102 70 -280 257 -32 34 -82 73 -120 92 -64 34 -66 35 -214 38 -164 4
-188 10 -222 60 -37 55 -14 137 47 169 21 10 66 14 172 14 79 0 157 5 173 10
90 33 93 179 5 220 -15 7 -83 11 -170 11 -159 0 -196 9 -227 57 -23 35 -22 97
3 130 35 47 63 54 227 56 91 1 159 6 171 13 79 44 86 153 13 205 -28 19 -45
21 -194 23 l-164 1 -30 29 c-27 26 -47 66 -45 90 3 34 18 64 45 90 l30 29 163
2 c193 1 218 6 279 51 58 42 142 165 164 239 23 79 3 169 -46 213 -43 39 -68
86 -66 127 3 71 51 122 122 128 53 5 77 -10 159 -94 104 -108 107 -110 149
-132 74 -38 126 -47 246 -45 106 2 119 4 172 32 34 18 100 72 166 137 61 58
121 108 134 111 29 6 77 -2 101 -17z"/>
<path d="M3347 3757 c-107 -26 -118 -169 -17 -222 18 -9 71 -12 183 -11 l159
1 34 37 c28 32 34 45 34 84 0 39 -5 51 -34 80 -19 19 -42 34 -52 35 -92 5
-277 3 -307 -4z"/>
<path d="M3376 3278 c-83 -12 -116 -48 -116 -126 1 -38 18 -66 60 -95 20 -14
49 -17 171 -17 80 0 160 5 177 11 38 13 77 72 74 112 -4 43 -29 85 -62 102
-33 17 -222 25 -304 13z"/>
</g>
</svg>
