<svg width="632" height="133" viewBox="0 0 632 133" fill="none" xmlns="http://www.w3.org/2000/svg">
<rect width="631.049" height="133" rx="16" fill="black"/>
<path d="M162.804 101.84C157.204 101.84 152.556 101.056 148.86 99.488C145.164 97.864 142.364 95.764 140.46 93.188C138.556 90.612 137.548 87.868 137.436 84.956C137.436 84.508 137.604 84.116 137.94 83.78C138.332 83.388 138.78 83.192 139.284 83.192H149.868C150.652 83.192 151.24 83.332 151.632 83.612C152.08 83.892 152.472 84.256 152.808 84.704C153.256 85.544 153.872 86.356 154.656 87.14C155.496 87.924 156.56 88.568 157.848 89.072C159.192 89.52 160.844 89.744 162.804 89.744C166.052 89.744 168.488 89.24 170.112 88.232C171.792 87.224 172.632 85.852 172.632 84.116C172.632 82.884 172.184 81.876 171.288 81.092C170.392 80.252 168.936 79.524 166.92 78.908C164.96 78.236 162.328 77.564 159.024 76.892C154.768 75.996 151.128 74.848 148.104 73.448C145.136 71.992 142.868 70.116 141.3 67.82C139.732 65.468 138.948 62.556 138.948 59.084C138.948 55.668 139.9 52.616 141.804 49.928C143.764 47.24 146.48 45.14 149.952 43.628C153.424 42.116 157.54 41.36 162.3 41.36C166.164 41.36 169.552 41.864 172.464 42.872C175.432 43.88 177.924 45.224 179.94 46.904C181.956 48.584 183.468 50.376 184.476 52.28C185.54 54.128 186.1 55.948 186.156 57.74C186.156 58.188 185.988 58.608 185.652 59C185.316 59.336 184.896 59.504 184.392 59.504H173.304C172.688 59.504 172.156 59.392 171.708 59.168C171.26 58.944 170.868 58.58 170.532 58.076C170.196 56.844 169.3 55.78 167.844 54.884C166.444 53.932 164.596 53.456 162.3 53.456C159.836 53.456 157.904 53.904 156.504 54.8C155.16 55.64 154.488 56.956 154.488 58.748C154.488 59.868 154.852 60.848 155.58 61.688C156.364 62.528 157.624 63.256 159.36 63.872C161.152 64.488 163.588 65.132 166.668 65.804C171.764 66.756 175.88 67.96 179.016 69.416C182.152 70.816 184.448 72.664 185.904 74.96C187.36 77.2 188.088 80.028 188.088 83.444C188.088 87.252 186.996 90.556 184.812 93.356C182.684 96.1 179.716 98.2 175.908 99.656C172.1 101.112 167.732 101.84 162.804 101.84Z" fill="white"/>
<path d="M217.917 101C214.333 101 211.225 100.44 208.593 99.32C206.017 98.144 204.029 96.352 202.629 93.944C201.229 91.48 200.529 88.316 200.529 84.452V68.324H193.977C193.361 68.324 192.829 68.128 192.381 67.736C191.989 67.344 191.793 66.84 191.793 66.224V59.42C191.793 58.804 191.989 58.3 192.381 57.908C192.829 57.516 193.361 57.32 193.977 57.32H200.529V43.46C200.529 42.844 200.725 42.34 201.117 41.948C201.565 41.556 202.069 41.36 202.629 41.36H212.373C212.989 41.36 213.493 41.556 213.885 41.948C214.277 42.34 214.473 42.844 214.473 43.46V57.32H224.973C225.589 57.32 226.093 57.516 226.485 57.908C226.877 58.3 227.073 58.804 227.073 59.42V66.224C227.073 66.84 226.877 67.344 226.485 67.736C226.093 68.128 225.589 68.324 224.973 68.324H214.473V83.276C214.473 85.18 214.837 86.692 215.565 87.812C216.293 88.932 217.525 89.492 219.261 89.492H225.729C226.345 89.492 226.849 89.688 227.241 90.08C227.633 90.472 227.829 90.976 227.829 91.592V98.9C227.829 99.516 227.633 100.02 227.241 100.412C226.849 100.804 226.345 101 225.729 101H217.917Z" fill="white"/>
<path d="M247.888 101.84C244.864 101.84 242.148 101.28 239.74 100.16C237.388 98.984 235.512 97.416 234.112 95.456C232.712 93.496 232.012 91.284 232.012 88.82C232.012 84.844 233.636 81.708 236.884 79.412C240.132 77.06 244.444 75.464 249.82 74.624L260.32 73.028V71.852C260.32 69.836 259.9 68.296 259.06 67.232C258.22 66.168 256.68 65.636 254.44 65.636C252.872 65.636 251.584 65.944 250.576 66.56C249.624 67.176 248.868 68.016 248.308 69.08C247.804 69.808 247.104 70.172 246.208 70.172H236.8C236.184 70.172 235.708 70.004 235.372 69.668C235.036 69.276 234.896 68.828 234.952 68.324C234.952 67.316 235.316 66.168 236.044 64.88C236.828 63.536 238.004 62.22 239.572 60.932C241.14 59.644 243.156 58.58 245.62 57.74C248.084 56.9 251.052 56.48 254.524 56.48C258.164 56.48 261.272 56.9 263.848 57.74C266.424 58.58 268.496 59.756 270.064 61.268C271.688 62.78 272.892 64.572 273.676 66.644C274.46 68.66 274.852 70.9 274.852 73.364V98.9C274.852 99.516 274.628 100.02 274.18 100.412C273.788 100.804 273.312 101 272.752 101H263.008C262.392 101 261.888 100.804 261.496 100.412C261.104 100.02 260.908 99.516 260.908 98.9V95.96C260.18 97.024 259.2 98.004 257.968 98.9C256.736 99.796 255.28 100.496 253.6 101C251.976 101.56 250.072 101.84 247.888 101.84ZM251.836 92.264C253.46 92.264 254.916 91.928 256.204 91.256C257.548 90.528 258.584 89.436 259.312 87.98C260.096 86.468 260.488 84.592 260.488 82.352V81.176L253.348 82.436C250.716 82.884 248.784 83.584 247.552 84.536C246.376 85.432 245.788 86.496 245.788 87.728C245.788 88.68 246.068 89.492 246.628 90.164C247.188 90.836 247.916 91.368 248.812 91.76C249.708 92.096 250.716 92.264 251.836 92.264Z" fill="white"/>
<path d="M286.431 101C285.815 101 285.311 100.804 284.919 100.412C284.527 100.02 284.331 99.516 284.331 98.9V59.42C284.331 58.86 284.527 58.384 284.919 57.992C285.311 57.544 285.815 57.32 286.431 57.32H296.091C296.707 57.32 297.211 57.544 297.603 57.992C297.995 58.384 298.191 58.86 298.191 59.42V62.78C299.703 61.044 301.495 59.7 303.567 58.748C305.695 57.796 308.075 57.32 310.707 57.32H314.403C314.963 57.32 315.439 57.516 315.831 57.908C316.279 58.3 316.503 58.804 316.503 59.42V68.072C316.503 68.632 316.279 69.136 315.831 69.584C315.439 69.976 314.963 70.172 314.403 70.172H306.255C303.959 70.172 302.167 70.816 300.879 72.104C299.647 73.336 299.031 75.1 299.031 77.396V98.9C299.031 99.516 298.807 100.02 298.359 100.412C297.967 100.804 297.463 101 296.847 101H286.431Z" fill="white"/>
<path d="M344.82 101C341.236 101 338.128 100.44 335.496 99.32C332.92 98.144 330.932 96.352 329.532 93.944C328.132 91.48 327.432 88.316 327.432 84.452V68.324H320.88C320.264 68.324 319.732 68.128 319.284 67.736C318.892 67.344 318.696 66.84 318.696 66.224V59.42C318.696 58.804 318.892 58.3 319.284 57.908C319.732 57.516 320.264 57.32 320.88 57.32H327.432V43.46C327.432 42.844 327.628 42.34 328.02 41.948C328.468 41.556 328.972 41.36 329.532 41.36H339.276C339.892 41.36 340.396 41.556 340.788 41.948C341.18 42.34 341.376 42.844 341.376 43.46V57.32H351.876C352.492 57.32 352.996 57.516 353.388 57.908C353.78 58.3 353.976 58.804 353.976 59.42V66.224C353.976 66.84 353.78 67.344 353.388 67.736C352.996 68.128 352.492 68.324 351.876 68.324H341.376V83.276C341.376 85.18 341.74 86.692 342.468 87.812C343.196 88.932 344.428 89.492 346.164 89.492H352.632C353.248 89.492 353.752 89.688 354.144 90.08C354.536 90.472 354.732 90.976 354.732 91.592V98.9C354.732 99.516 354.536 100.02 354.144 100.412C353.752 100.804 353.248 101 352.632 101H344.82Z" fill="white"/>
<path d="M382.593 101C381.977 101 381.473 100.804 381.081 100.412C380.689 100.02 380.493 99.516 380.493 98.9V44.3C380.493 43.684 380.689 43.18 381.081 42.788C381.473 42.396 381.977 42.2 382.593 42.2H405.441C412.665 42.2 418.349 43.88 422.493 47.24C426.693 50.544 428.793 55.248 428.793 61.352C428.793 65.328 427.813 68.688 425.853 71.432C423.949 74.176 421.429 76.248 418.293 77.648L429.885 98.312C430.053 98.648 430.137 98.956 430.137 99.236C430.137 99.684 429.941 100.104 429.549 100.496C429.213 100.832 428.793 101 428.289 101H417.201C416.137 101 415.353 100.748 414.849 100.244C414.345 99.684 413.981 99.18 413.757 98.732L404.181 80.252H395.529V98.9C395.529 99.516 395.333 100.02 394.941 100.412C394.549 100.804 394.045 101 393.429 101H382.593ZM395.529 68.408H405.273C407.905 68.408 409.865 67.764 411.153 66.476C412.497 65.188 413.169 63.424 413.169 61.184C413.169 59 412.525 57.236 411.237 55.892C410.005 54.548 408.017 53.876 405.273 53.876H395.529V68.408Z" fill="white"/>
<path d="M440.671 101C440.055 101 439.551 100.804 439.159 100.412C438.767 100.02 438.571 99.516 438.571 98.9V44.3C438.571 43.684 438.767 43.18 439.159 42.788C439.551 42.396 440.055 42.2 440.671 42.2H479.899C480.515 42.2 481.019 42.396 481.411 42.788C481.803 43.18 481.999 43.684 481.999 44.3V52.196C481.999 52.812 481.803 53.316 481.411 53.708C481.019 54.1 480.515 54.296 479.899 54.296H453.103V65.636H478.051C478.667 65.636 479.171 65.86 479.563 66.308C479.955 66.7 480.151 67.204 480.151 67.82V75.128C480.151 75.688 479.955 76.192 479.563 76.64C479.171 77.032 478.667 77.228 478.051 77.228H453.103V88.904H480.571C481.187 88.904 481.691 89.1 482.083 89.492C482.475 89.884 482.671 90.388 482.671 91.004V98.9C482.671 99.516 482.475 100.02 482.083 100.412C481.691 100.804 481.187 101 480.571 101H440.671Z" fill="white"/>
<path d="M494.32 101C493.704 101 493.2 100.804 492.808 100.412C492.416 100.02 492.22 99.516 492.22 98.9V44.3C492.22 43.684 492.416 43.18 492.808 42.788C493.2 42.396 493.704 42.2 494.32 42.2H517.84C522.488 42.2 526.52 42.928 529.936 44.384C533.408 45.784 536.096 47.912 538 50.768C539.96 53.624 540.94 57.236 540.94 61.604C540.94 65.916 539.96 69.472 538 72.272C536.096 75.072 533.408 77.144 529.936 78.488C526.52 79.832 522.488 80.504 517.84 80.504H507.844V98.9C507.844 99.516 507.62 100.02 507.172 100.412C506.78 100.804 506.276 101 505.66 101H494.32ZM507.592 68.912H517.42C519.828 68.912 521.732 68.296 523.132 67.064C524.588 65.832 525.316 63.956 525.316 61.436C525.316 59.308 524.7 57.516 523.468 56.06C522.236 54.604 520.22 53.876 517.42 53.876H507.592V68.912Z" fill="white"/>
<path d="M573.009 101.84C567.857 101.84 563.377 101 559.569 99.32C555.761 97.64 552.793 95.12 550.665 91.76C548.537 88.344 547.361 84.088 547.137 78.992C547.081 76.584 547.053 74.176 547.053 71.768C547.053 69.36 547.081 66.924 547.137 64.46C547.361 59.42 548.537 55.192 550.665 51.776C552.849 48.304 555.845 45.7 559.653 43.964C563.461 42.228 567.913 41.36 573.009 41.36C578.049 41.36 582.473 42.228 586.281 43.964C590.145 45.7 593.169 48.304 595.353 51.776C597.537 55.192 598.713 59.42 598.881 64.46C598.993 66.924 599.049 69.36 599.049 71.768C599.049 74.176 598.993 76.584 598.881 78.992C598.657 84.088 597.481 88.344 595.353 91.76C593.225 95.12 590.257 97.64 586.449 99.32C582.641 101 578.161 101.84 573.009 101.84ZM573.009 89.744C575.977 89.744 578.385 88.848 580.233 87.056C582.137 85.264 583.145 82.408 583.257 78.488C583.369 76.024 583.425 73.7 583.425 71.516C583.425 69.332 583.369 67.064 583.257 64.712C583.145 62.08 582.641 59.952 581.745 58.328C580.905 56.648 579.729 55.416 578.217 54.632C576.705 53.848 574.969 53.456 573.009 53.456C571.105 53.456 569.397 53.848 567.885 54.632C566.373 55.416 565.169 56.648 564.273 58.328C563.377 59.952 562.873 62.08 562.761 64.712C562.705 67.064 562.677 69.332 562.677 71.516C562.677 73.7 562.705 76.024 562.761 78.488C562.929 82.408 563.937 85.264 565.785 87.056C567.633 88.848 570.041 89.744 573.009 89.744Z" fill="white"/>
<path d="M63.1111 72.2955C63.1111 71.2285 63.976 70.3636 65.0429 70.3636H68.9571C70.024 70.3636 70.8889 71.2285 70.8889 72.2955C70.8889 73.3624 70.024 74.2273 68.9571 74.2273H65.0429C63.976 74.2273 63.1111 73.3624 63.1111 72.2955ZM90.0787 34.1906C97.325 37.3902 102 44.5651 102 52.4864V62.6364C102 82.1885 89.4894 100.759 71.7382 107.515C68.6894 108.675 65.3106 108.675 62.2618 107.515C44.5106 100.759 32 82.1885 32 62.6364V52.4864C32 44.5651 36.6751 37.3902 43.9213 34.1906L58.9214 27.5672C64.0674 25.2949 69.9326 25.2949 75.0787 27.5672L90.0787 34.1906ZM86.4444 60.7045C86.4444 59.6376 85.5795 58.7727 84.5126 58.7727H80.7384C79.0361 58.7727 77.5742 57.643 76.6371 56.2217C76.457 55.9484 76.2653 55.6822 76.063 55.4231C74.9261 53.9665 74.7628 51.833 76.0736 50.5308L76.9078 49.702C77.663 48.9517 77.663 47.7301 76.9078 46.9798C76.1596 46.2364 74.9516 46.2364 74.2033 46.9798L71.7079 49.459C70.6851 50.4752 69.302 51.0455 67.8602 51.0455H67C65.3539 51.0455 63.5066 50.6109 62.3795 49.4112L60.3508 47.2517C59.5197 46.367 58.1222 46.3429 57.2611 47.1984C56.4128 48.0412 56.4128 49.4134 57.2611 50.2562L57.7685 50.7603C59.0963 52.0795 58.7937 54.3315 57.6646 55.8243C57.4994 56.0427 57.3423 56.2688 57.1939 56.5019C56.385 57.773 55.0959 58.7727 53.5893 58.7727H49.4874C48.4205 58.7727 47.5556 59.6376 47.5556 60.7045C47.5556 61.7715 48.4205 62.6364 49.4874 62.6364H53.4015C54.4684 62.6364 55.3333 63.5013 55.3333 64.5682C55.3333 65.6351 54.4684 66.5 53.4015 66.5H49.4874C48.4205 66.5 47.5556 67.3649 47.5556 68.4318C47.5556 69.4987 48.4205 70.3636 49.4874 70.3636H53.4015C54.4684 70.3636 55.3333 71.2285 55.3333 72.2955C55.3333 73.3624 54.4684 74.2273 53.4015 74.2273H49.4874C48.4205 74.2273 47.5556 75.0922 47.5556 76.1591C47.5556 77.226 48.4205 78.0909 49.4874 78.0909H52.5318C54.6702 78.0909 56.4829 79.5356 57.7569 81.253C59.8532 84.079 63.2078 85.8182 67 85.8182C70.7922 85.8182 74.1468 84.079 76.2431 81.253C77.5171 79.5356 79.3298 78.0909 81.4682 78.0909H84.5126C85.5795 78.0909 86.4444 77.226 86.4444 76.1591C86.4444 75.0922 85.5795 74.2273 84.5126 74.2273H80.5985C79.5316 74.2273 78.6667 73.3624 78.6667 72.2955C78.6667 71.2285 79.5316 70.3636 80.5985 70.3636H84.5126C85.5795 70.3636 86.4444 69.4987 86.4444 68.4318C86.4444 67.3649 85.5795 66.5 84.5126 66.5H80.5985C79.5316 66.5 78.6667 65.6351 78.6667 64.5682C78.6667 63.5013 79.5316 62.6364 80.5985 62.6364H84.5126C85.5795 62.6364 86.4444 61.7715 86.4444 60.7045ZM63.1111 64.5682C63.1111 65.6351 63.976 66.5 65.0429 66.5H68.9571C70.024 66.5 70.8889 65.6351 70.8889 64.5682C70.8889 63.5013 70.024 62.6364 68.9571 62.6364H65.0429C63.976 62.6364 63.1111 63.5013 63.1111 64.5682Z" fill="#A855F7"/>
</svg>
